<?xml version="1.0" encoding="utf-8"?>
<!-- Generator: Adobe Illustrator 18.1.1, SVG Export Plug-In . SVG Version: 6.00 Build 0)  -->
<svg version="1.1" id="Layer_1" xmlns="http://www.w3.org/2000/svg" xmlns:xlink="http://www.w3.org/1999/xlink" x="0px" y="0px"
	 viewBox="0 0 179.1 171.4" enable-background="new 0 0 179.1 171.4" xml:space="preserve">
<g>
	<g>
		<g>
			<path fill="#FFFFFF" d="M107.4,166.9c0,0,8.5-3.6,13.2-17.7c4.1,8.6,3,17.5,3,17.5C119.9,167.4,107.4,166.9,107.4,166.9z"/>
			<path fill="#FFFFFF" d="M153.2,86.2c0,0,5.2,28.3-13.2,29.3c-17.7,0.9-26.1-25.8-26.1-25.8s4.3,52.3,29.1,48.8
				C171,134.7,153.2,86.2,153.2,86.2z"/>
		</g>
	</g>
	<path fill="#FFFFFF" d="M18.1,160.1C18.1,160.1,18.2,160.1,18.1,160.1c20.8-4.7,36.6-29,41.3-38.7l3-6.2l1.8,6.6
		c0.1,0.4,2,7.6,2,17.3c0,1.1,0,2.2-0.1,3.3c7.1,0.3,12.2-1.2,15.4-4.5c4.5-4.7,5.9-13.7,4.2-27.4c-0.8-6.6-3.2-17-5.4-26.2
		c-1.1-4.7-2.1-9.1-2.7-12.3c-4-20.1,1-32.6,5.8-39.5c0.8-1.1,1.6-2.1,2.5-3.1c-14.3,4.8-26.3,12.4-38.8,24.8l8.7,10.2l3.6-3.3
		c3.4,12.6,1,24.2,1,24.2c-4.6-7-10-12.7-10-12.7l2.4-4l-7.9-9.2l-0.9-1c-9.7,13.3-12.8,24.2-12.8,24.2l6.9,6.3l4,3.6l1.3-3.9
		c7.4,13.8,0.7,26.8,0.7,26.8c-1.2-4.7-6.1-11.7-6.1-11.7l1.9-6.3l-10.2-9.3c-10.6,33.3-24.8,44.1-24.8,44.1s15.4-2.8,23.9-5.7
		C28.8,126.6,28.5,144.2,18.1,160.1z"/>
	<path fill="#FFFFFF" d="M173.1,40.1l-24.5,1c0,2.9-0.4,5.8-1.3,8.6c2.3,10,0.7,15.5,0.7,15.5c-4.1-9.6-7.3-12.2-7.3-12.2
		c-22.5-10.1-35.2,12.6-33.8,27.3c1.1,12,5.5,28,8.9,53c2.9,21.1-7.8,30.2-20,32.3c-0.3,0-0.5,0.1-0.8,0.1c-0.1,0-0.1,0-0.2,0
		c-2,0.3-4.1,0.3-6.3,0.3c-0.1,0-0.2,0-0.2,0c-0.2,0-0.5,0-0.7,0c-1-0.1-1.9-0.2-2.8-0.3c-9.5-1.3-30.8-5.2-52.9-5.7
		c13-7.6,23.1-20.7,28.7-30c0.3,2.6,0.6,5.7,0.6,9.2c0,1.7-0.1,3.5-0.2,5.4l-0.2,2.5l2.5,0.2c10.1,0.9,17.3-1.1,22-5.9
		c5.8-6,7.5-16,5.6-31.5c-0.9-6.8-3.3-17.4-5.5-26.7c-1.1-4.7-2.1-9.1-2.7-12.1c-3.6-18.3,0.7-29.4,5-35.5c3.4-4.8,8-8.3,13.1-10
		c0.1,0,0.2,0,0.3,0l8.4-23.7h2.6l-5.6,22.7c1.3-0.2,2.6-0.4,4-0.6l7.2-20.8h2.6l-4.7,20.1c7.5-1,15.6-1.7,24.6-2.4
		c1.5,0.6,3,2.3,4.4,4.6l23.6-7.3l0.9,2.5l-22.5,8.8c0.2,0.5,0.3,1,0.5,1.4l24.7-3.1l0.4,2.7L148,35.3c0.1,0.5,0.2,0.9,0.2,1.3
		l24.9,0.8L173.1,40.1z M102.1,51.2c4.9-3.5,13.4-6.2,21.2-5.5c2,0.2,3.7-0.4,1.5-1.5c-5.9-3.1-19.7-2.1-24.5,1.3
		c-7.8,5.3-6.5,14.8-6.3,15.1C95.6,57.7,98.2,53.9,102.1,51.2z"/>
</g>
</svg>
