<?xml version="1.0" encoding="utf-8"?>
<!-- Generator: Adobe Illustrator 18.0.0, SVG Export Plug-In . SVG Version: 6.00 Build 0)  -->
<!DOCTYPE svg PUBLIC "-//W3C//DTD SVG 1.1//EN" "http://www.w3.org/Graphics/SVG/1.1/DTD/svg11.dtd">
<svg version="1.1" id="Layer_1" xmlns="http://www.w3.org/2000/svg" xmlns:xlink="http://www.w3.org/1999/xlink" x="0px" y="0px"
	 viewBox="0 0 143 70.2" enable-background="new 0 0 143 70.2" xml:space="preserve">
<g>
	<g>
		<g>
			<path fill="#8B2332" d="M37.6,17.7l-0.9,3.9c0,0.7-0.5,0.8-1.3,1.1c-1.1,0.4-3.1,0.9-5.5,0.9c-5.8,0-11.1-3-11.1-11.3
				c0-4.8,3.7-11.1,11.4-11.1c2.8,0,4.1,0.6,5.5,1.1c0.8,0.3,1.1,0.7,1.1,1.2v4h-0.7C36,5,34.5,2.3,30,2.3c-5.3,0-7.9,4.2-7.9,9.7
				c0,6.1,2.6,10.5,8.4,10.5c3.8,0,5.5-2.3,6.4-4.8H37.6z"/>
			<path fill="#8B2332" d="M40.9,18.2L40,21.1c-0.3,0.8,0.1,1.6,1,1.6v0.6h-3.6v-0.6c0.5,0,1.1-0.4,1.4-1.1c0.9-1.9,3.2-9,4.8-13.7
				h1.1c1.4,4.3,3.4,11,4.1,12.9c0.4,1.2,0.8,1.9,1.6,1.9v0.6h-4.6v-0.6c1.3,0,1.4-0.7,1.1-1.7L46,18.2H40.9z M45.8,17.3l-2.1-7h0
				l-2.4,7H45.8z"/>
			<path fill="#8B2332" d="M53.3,11.5L53.3,11.5l0,8.8c0,0.5,0.1,0.8,0.1,1.2c0.1,0.8,0.8,1.1,1.7,1.2v0.6h-4.5v-0.6
				c0.9-0.1,1.6-0.4,1.7-1.2c0-0.3,0.1-0.7,0.1-1.2v-9.8c-0.4-1-1.4-1.9-2.3-1.9V8.1h3.8l5.5,12.1l5.7-12.1h3.2v0.6
				c-1.5,0-2,0.9-2,2.2v9.6c0,2-0.1,1.9,1.7,2.1v0.6h-5.3v-0.6c1.8-0.2,1.7-0.1,1.7-2.1v-9.1h0L59,23.3h-0.3L53.3,11.5z"/>
			<path fill="#8B2332" d="M72.3,20.5c0,2-0.1,1.9,1.7,2.1v0.6h-5.3v-0.6c1.8-0.2,1.7-0.1,1.7-2.1v-9.7c0-2,0.1-1.9-1.7-2.1V8.1h5.2
				c3.3,0,4.9,1.4,4.9,4c0,3.1-2.6,4.8-5.6,4.6v-0.4c2.5,0,3.6-1.6,3.6-4c0-2.4-1.1-3.5-3.3-3.5h-1.2V20.5z"/>
			<path fill="#8B2332" d="M81.1,18.2l-0.9,2.9c-0.3,0.8,0.1,1.6,1,1.6v0.6h-3.6v-0.6c0.5,0,1.1-0.4,1.4-1.1c0.9-1.9,3.2-9,4.8-13.7
				h1.1c1.4,4.3,3.4,11,4.1,12.9c0.4,1.2,0.8,1.9,1.6,1.9v0.6h-4.6v-0.6c1.3,0,1.4-0.7,1.1-1.7l-0.9-2.8H81.1z M85.9,17.3l-2.1-7h0
				l-2.4,7H85.9z"/>
			<path fill="#8B2332" d="M94.3,20.5c0,2-0.1,1.9,1.7,2.1v0.6h-5.3v-0.6c1.8-0.2,1.7-0.1,1.7-2.1v-9.7c0-2,0.1-1.9-1.7-2.1V8.1H96
				v0.6c-1.8,0.2-1.7,0.1-1.7,2.1V20.5z"/>
			<path fill="#8B2332" d="M96.8,15.5c0-3.3,2.6-7.7,8-7.7c1.9,0,2.8,0.4,3.8,0.7c0.6,0.2,0.8,0.5,0.8,0.8v2.8h-0.5
				c-0.1-1.7-1.1-3.6-4.2-3.6c-4.2,0-5.5,3.1-5.5,6.8c0,3.4,1.6,7.3,5.6,7.3c2.5,0,2.7-1,2.7-2.7v-1.3c0-2,0.1-1.9-2.1-2.1V16h5.7
				v0.6c-1.8,0.2-1.7,0.1-1.7,2.1v3.8c-1.3,0.5-2.9,1-4.8,1C100.4,23.4,96.8,21.3,96.8,15.5z"/>
			<path fill="#8B2332" d="M123.7,23.2c-3.2-4.1-6.4-8.3-9.7-12.5v9.6c0,0.5,0.1,0.8,0.1,1.2c0.1,0.8,0.8,1.1,2.1,1.2v0.6h-4.9v-0.6
				c1-0.1,1.6-0.4,1.7-1.2c0-0.3,0.1-0.7,0.1-1.2V10.1c-0.6-0.8-1.2-1.5-2.3-1.5V8.1h3.6c3,3.9,6,7.9,9,11.8h0V11
				c0-0.5-0.1-0.8-0.1-1.2c-0.1-0.8-0.8-1.1-2.1-1.2V8.1h4.9v0.6c-0.9,0.1-1.6,0.4-1.7,1.2c0,0.3-0.1,0.7-0.1,1.2v12.2H123.7z"/>
		</g>
		<g>
			<path fill="#8B2332" d="M130,21.3L130,21.3l-0.7,0.7c-0.4,0.3-1.2,0.6-1.9,0.6h0c-0.3,0.3-0.5,0.5-0.8,0.8
				c-1.8,1.6-3.9,2.6-6.1,2.6c-0.2,0-0.5,0-0.7,0l0-0.1c0.1,0,0.2,0,0.3,0c2.8,0,4.7-1.7,6.4-3.5c-0.2-0.2-0.2-0.4-0.2-0.6
				c0-0.3,0.2-0.6,0.5-0.6c0.1,0,0.2,0.1,0.2,0.3l-0.6,0.4c0,0.2,0.1,0.3,0.2,0.4l0.6-0.7c2.5-2.7,3.8-5.1,7.2-5.9l0,0.1
				c-4.1,1.2-4.8,4.3-7.1,6.8c0.6,0,1.4-0.3,1.7-0.5L130,21.3z"/>
			<path fill="#8B2332" d="M133.4,19.9c0,0.5-0.7,1.4-1.5,2.2h0.1c0.3,0,0.8-0.2,1.2-0.5l0.4-0.3l0,0.1l-0.4,0.3
				c-0.2,0.2-0.9,0.5-1.3,0.5c-0.1,0-0.1,0-0.2,0c-0.7,0.6-1.4,1.1-1.9,1.1c-0.5,0-0.7-0.2-0.7-0.6c0-1.1,1.8-3.2,3.7-3.2
				C133.3,19.6,133.4,19.7,133.4,19.9z M131.7,22.1c-0.1-0.1-0.1-0.2-0.1-0.3c0-0.5,0.5-0.7,1-0.7c0.4-0.5,0.6-1,0.6-1.2
				c0-0.1-0.1-0.2-0.2-0.2c-0.7,0-3.4,2.5-3.4,3.3c0,0.1,0.1,0.2,0.3,0.2C130.4,23.2,131.1,22.7,131.7,22.1z"/>
			<path fill="#8B2332" d="M137.4,21.4c-1.5,1-2.6,2-3.2,2c-0.2,0-0.4-0.2-0.4-0.5c0-1.2,2.7-2.8,2.7-3.3c0-0.1,0-0.3-0.1-0.5
				c-0.2,0.3-1,1.1-2.8,2.4l-0.1-0.1c2-1.4,2.7-2.2,2.9-2.5v-0.2c0-0.5,0.3-0.7,0.5-0.7c0.1,0,0.2,0.1,0.2,0.2
				c0,0.3-0.3,0.5-0.5,0.6c-0.1,0-0.1,0.1-0.1,0.1c0,0.4,0.1,0.7,0.1,1.1c0,1.1-2.5,2.4-2.5,3.1c0,0.1,0.1,0.2,0.2,0.2
				C134.8,23.3,135.9,22.4,137.4,21.4L137.4,21.4z"/>
		</g>
		<g>
			<path fill="#8B2332" d="M18.1,15.4c0,0.9-1.7,2.9-4,2.9c-0.1,0-0.3,0-0.4,0c-1.1,1.2-2.1,2.5-2.6,3.2c0,0.1-0.1,0.1-0.1,0.2
				c1.1-0.8,2.9-2.1,3.5-2.1c0.2,0,0.3,0.1,0.3,0.3c0,1.1-2.5,2.7-2.5,3.1c0,0.1,0.1,0.2,0.2,0.2c0.4,0,1.5-0.9,3-1.9l0,0.1
				c-1.5,1-2.6,2-3.2,2c-0.2,0-0.4-0.2-0.4-0.6c0-0.8,2.6-2.7,2.6-3c0,0,0,0-0.1,0c-0.6,0-2.7,1.5-3.7,2.3c-0.6,0.6-1.4,1.2-2,1.2
				c0,0-0.1,0-0.1,0c0,0,0,0,0-0.1c0.4-0.3,0.8-0.7,1.3-1.2c-0.4,0.3-0.9,0.7-1.2,0.9c-0.3,0.2-0.8,0.4-1.1,0.4
				c-0.2,0-0.4-0.1-0.4-0.4c0-0.5,0.5-1.3,0.9-1.7c1.2-1.3,2.5-2.5,3.6-3.5c-1-0.4-2.1-0.8-3.3-0.8c-0.8,0-1.6,0.2-2.5,0.5l-0.1-0.1
				c0.9-0.4,1.7-0.5,2.5-0.5c1.3,0,2.4,0.4,3.5,0.8c0.4-0.3,0.7-0.7,1-1c0.5,0,1.1-0.1,1.1-0.1l0,0.1c-0.4,0.3-0.9,0.7-1.4,1.2
				c0.2,0.1,0.4,0.1,0.6,0.2c0.2,0,0.3,0.1,0.4,0.1c1.7-1.7,3.2-3.1,4.2-3.1C18,15,18.1,15.2,18.1,15.4z M7.5,22.9
				c0,0.1,0.1,0.2,0.2,0.2c0.3,0,0.7-0.2,0.9-0.4c0.5-0.3,1-0.8,1.7-1.2c0.9-1,2-2.1,3-3.2c-0.1,0-0.2,0-0.3-0.1
				c-0.2-0.1-0.5-0.1-0.7-0.2c-1.3,1.2-2.8,2.6-4,3.7C8.1,22,7.5,22.6,7.5,22.9z M14,18.2c2.2,0,3.7-2.2,3.7-2.8
				c0-0.1,0-0.1-0.1-0.1c-0.8,0-2.3,1.4-3.8,3H14z"/>
			<path fill="#8B2332" d="M19,21.3L19,21.3c-0.8,0.7-1.6,1.3-2.2,1.7c-0.4,0.2-0.9,0.4-1.3,0.4c-0.4,0-0.8-0.2-0.8-0.6
				c0-1,1.6-3.1,3.7-3.1c0.2,0,0.3,0.1,0.3,0.2c0,0.4-1,1.2-2.5,1.4c-0.6,0.6-1.1,1.3-1.1,1.6c0,0.2,0.2,0.3,0.4,0.3
				c0.3,0,0.8-0.2,1.1-0.3C17.3,22.6,18.1,22,19,21.3z M18.4,19.8c-0.5,0-1.3,0.7-2.1,1.4c1.2-0.2,2.3-1,2.3-1.3
				C18.6,19.8,18.6,19.8,18.4,19.8z"/>
		</g>
	</g>
	<g>
		<path fill="#5F6B72" d="M11.9,64.8h1.1c0.8,0,1.1,0.5,1.1,1.1c0,0.6-0.3,1-0.8,1v0c0.6,0,0.9,0.5,0.9,1.1c0,0.8-0.5,1.2-1.2,1.2
			h-1.2V64.8z M13,66.8c0.5,0,0.9-0.3,0.9-0.9c0-0.6-0.3-0.9-0.8-0.9h-0.9v1.8H13z M13,69.1c0.7,0,1-0.3,1-1c0-0.8-0.4-1-1-1h-0.8
			v2.1H13z"/>
		<path fill="#5F6B72" d="M16,64.8h2V65h-1.7v1.8h1.6v0.2h-1.6v2h1.8v0.2h-2V64.8z"/>
		<path fill="#5F6B72" d="M21.8,66.1c0-0.6-0.3-1.2-0.9-1.2c-0.8,0-1.1,0.8-1.1,2.1c0,1.2,0.2,2.1,1.1,2.1c0.8,0,1-1,1-1.4h0.2
			c0,0.5-0.2,1.6-1.3,1.6c-0.9,0-1.3-0.9-1.3-2.3c0-1.4,0.4-2.4,1.3-2.4c1,0,1.2,0.9,1.2,1.4H21.8z"/>
		<path fill="#5F6B72" d="M25.6,67.9H24l-0.4,1.4h-0.2l1.3-4.5H25l1.3,4.5H26L25.6,67.9z M24.9,65L24.9,65l-0.7,2.6h1.5L24.9,65z"/>
		<path fill="#5F6B72" d="M28,68.1c0,0.6,0.3,1.1,0.9,1.1c0.6,0,0.9-0.4,0.9-1.1v-3.3H30v3.3c0,1-0.6,1.3-1.2,1.3
			c-0.6,0-1.2-0.2-1.2-1.3v-3.3H28V68.1z"/>
		<path fill="#5F6B72" d="M31.9,68.1c0,0.6,0.3,1,0.9,1c0.6,0,1-0.5,1-1c0-0.6-0.3-0.8-0.8-1L32.6,67c-0.5-0.2-0.8-0.5-0.8-1.1
			c0-0.7,0.5-1.2,1.1-1.2c0.8,0,1.1,0.5,1.1,1.2h-0.2c0-0.6-0.3-1-0.8-1c-0.5,0-0.9,0.2-0.9,0.9c0,0.5,0.2,0.7,0.6,0.9l0.6,0.2
			c0.5,0.2,0.8,0.5,0.8,1.2c0,0.8-0.5,1.3-1.2,1.3c-1,0-1.2-0.7-1.2-1.2v-0.3h0.2V68.1z"/>
		<path fill="#5F6B72" d="M35.8,64.8h2V65h-1.7v1.8h1.6v0.2h-1.6v2h1.8v0.2h-2V64.8z"/>
		<path fill="#5F6B72" d="M42.6,65h-1.1v-0.2H44V65h-1.1v4.3h-0.2V65z"/>
		<path fill="#5F6B72" d="M45.5,64.8h0.2v2h1.8v-2h0.2v4.5h-0.2V67h-1.8v2.3h-0.2V64.8z"/>
		<path fill="#5F6B72" d="M49.7,64.8h2V65h-1.7v1.8h1.6v0.2h-1.6v2h1.8v0.2h-2V64.8z"/>
		<path fill="#5F6B72" d="M57.4,65.1L57.4,65.1l-0.8,4.2h-0.3l-0.9-4.5h0.2l0.8,4.2h0l0.8-4.2h0.3l0.8,4.2h0l0.8-4.2h0.2l-0.9,4.5
			h-0.3L57.4,65.1z"/>
		<path fill="#5F6B72" d="M63.5,67c0,2-0.8,2.3-1.3,2.3c-0.8,0-1.3-0.6-1.3-2.3c0-1.8,0.6-2.3,1.3-2.3C63,64.7,63.5,65.3,63.5,67z
			 M61.1,67c0,1.2,0.2,2.1,1.1,2.1c0.8,0,1.1-0.7,1.1-2.1c0-1.2-0.3-2.1-1.1-2.1C61.4,64.9,61.1,65.8,61.1,67z"/>
		<path fill="#5F6B72" d="M65.3,64.8h1.2c0.6,0,1,0.4,1,1.2c0,0.6-0.3,1.1-0.8,1.1v0c0.7,0,0.8,0.5,0.8,1.1v0.5c0,0.3,0,0.4,0.1,0.6
			h-0.3c-0.1-0.1-0.1-0.3-0.1-0.6v-0.5c0-0.6-0.2-1-0.8-1h-0.9v2.1h-0.2V64.8z M66.3,67c0.5,0,1-0.2,1-1c0-0.6-0.3-1-0.8-1h-0.9v2
			H66.3z"/>
		<path fill="#5F6B72" d="M69.4,64.8h0.2v4.3h1.7v0.2h-2V64.8z"/>
		<path fill="#5F6B72" d="M73,64.8h1c0.9,0,1.5,0.4,1.5,2.3c0,1.9-0.7,2.3-1.5,2.3h-1V64.8z M74,69.1c0.9,0,1.3-0.7,1.3-2.1
			c0-1.4-0.3-2.1-1.3-2.1h-0.7v4.1H74z"/>
		<path fill="#5F6B72" d="M80.1,64.8l1.8,4.1h0v-4.1h0.2v4.5h-0.3L80,65.2h0v4.1h-0.2v-4.5H80.1z"/>
		<path fill="#5F6B72" d="M84,64.8h2V65h-1.7v1.8h1.6v0.2h-1.6v2h1.8v0.2h-2V64.8z"/>
		<path fill="#5F6B72" d="M87.7,64.8h2V65h-1.7v1.8h1.6v0.2h-1.6v2h1.8v0.2h-2V64.8z"/>
		<path fill="#5F6B72" d="M91.3,64.8h1c0.9,0,1.5,0.4,1.5,2.3c0,1.9-0.7,2.3-1.5,2.3h-1V64.8z M92.3,69.1c0.9,0,1.3-0.7,1.3-2.1
			c0-1.4-0.3-2.1-1.3-2.1h-0.7v4.1H92.3z"/>
		<path fill="#5F6B72" d="M95.6,68.1c0,0.6,0.3,1,0.9,1c0.6,0,1-0.5,1-1c0-0.6-0.3-0.8-0.8-1L96.3,67c-0.5-0.2-0.8-0.5-0.8-1.1
			c0-0.7,0.5-1.2,1.1-1.2c0.8,0,1.1,0.5,1.1,1.2h-0.2c0-0.6-0.3-1-0.8-1c-0.5,0-0.9,0.2-0.9,0.9c0,0.5,0.3,0.7,0.6,0.9l0.6,0.2
			c0.5,0.2,0.8,0.5,0.8,1.2c0,0.8-0.5,1.3-1.2,1.3c-1,0-1.2-0.7-1.2-1.2v-0.3h0.2V68.1z"/>
		<path fill="#5F6B72" d="M102.1,64.8h1.1c0.8,0,1.1,0.5,1.1,1.1c0,0.6-0.3,1-0.8,1v0c0.6,0,0.9,0.5,0.9,1.1c0,0.8-0.5,1.2-1.2,1.2
			h-1.2V64.8z M103.1,66.8c0.5,0,0.9-0.3,0.9-0.9c0-0.6-0.3-0.9-0.8-0.9h-0.9v1.8H103.1z M103.1,69.1c0.7,0,1-0.3,1-1
			c0-0.8-0.4-1-1-1h-0.8v2.1H103.1z"/>
		<path fill="#5F6B72" d="M106.2,64.8h0.2v4.5h-0.2V64.8z"/>
		<path fill="#5F6B72" d="M110.6,68.4L110.6,68.4c-0.1,0.6-0.5,1-1.1,1c-0.9,0-1.3-0.9-1.3-2.3c0-1.4,0.4-2.4,1.3-2.4
			c1,0,1.2,0.9,1.2,1.4h-0.2c0-0.6-0.3-1.2-0.9-1.2c-0.8,0-1.1,0.8-1.1,2.1c0,1.2,0.2,2.1,1.1,2.1c0.8,0,1-0.8,1-1.6v-0.3h-1.1V67
			h1.4v2.3h-0.2V68.4z"/>
		<path fill="#5F6B72" d="M115.1,64.8h0.2v4.5h-0.2V64.8z"/>
		<path fill="#5F6B72" d="M117.2,64.8h1c0.9,0,1.5,0.4,1.5,2.3c0,1.9-0.7,2.3-1.5,2.3h-1V64.8z M118.1,69.1c0.9,0,1.3-0.7,1.3-2.1
			c0-1.4-0.3-2.1-1.3-2.1h-0.7v4.1H118.1z"/>
		<path fill="#5F6B72" d="M121.4,64.8h2V65h-1.7v1.8h1.6v0.2h-1.6v2h1.8v0.2h-2V64.8z"/>
		<path fill="#5F6B72" d="M126.9,67.9h-1.6l-0.4,1.4h-0.2l1.3-4.5h0.3l1.2,4.5h-0.2L126.9,67.9z M126.1,65L126.1,65l-0.7,2.6h1.5
			L126.1,65z"/>
		<path fill="#5F6B72" d="M129.1,68.1c0,0.6,0.3,1,0.9,1c0.6,0,1-0.5,1-1c0-0.6-0.3-0.8-0.8-1l-0.5-0.2c-0.5-0.2-0.8-0.5-0.8-1.1
			c0-0.7,0.5-1.2,1.1-1.2c0.8,0,1.1,0.5,1.1,1.2h-0.2c0-0.6-0.3-1-0.8-1c-0.5,0-0.9,0.2-0.9,0.9c0,0.5,0.2,0.7,0.6,0.9l0.6,0.2
			c0.5,0.2,0.8,0.5,0.8,1.2c0,0.8-0.5,1.3-1.2,1.3c-1,0-1.2-0.7-1.2-1.2v-0.3h0.2V68.1z"/>
	</g>
	<g>
		<g>
			<path fill="#4D4D4F" d="M5.3,29.4c-1,0-1.3,0.4-1,1.5l1.8,6.8h0l3-8.6h0.6l3,8.5h0c0.7-2.2,1.3-4.5,2-6.7c0.3-1,0-1.5-1.2-1.5V29
				h3.3v0.4c-0.5,0-1.1,0.4-1.3,1.2l-2.8,9.5h-0.7l-3-8.6l-3,8.6H5.4l-2.3-8.5c-0.4-1.6-0.9-2.2-1.7-2.2V29h4V29.4z"/>
			<path fill="#4D4D4F" d="M16.6,36.4l-0.7,2.1c-0.2,0.6,0.1,1.1,0.8,1.1v0.4h-2.8v-0.4c0.4,0,0.8-0.3,1.1-0.8
				c0.7-1.4,2.4-6.6,3.7-10.1h0.8c1,3.2,2.6,8.1,3.1,9.5c0.3,0.9,0.6,1.4,1.2,1.4v0.4h-3.5v-0.4c1,0,1-0.5,0.8-1.2l-0.6-2.1H16.6z
				 M20.3,35.8l-1.6-5.2h0l-1.8,5.2H20.3z"/>
			<path fill="#4D4D4F" d="M28.9,31.3c-0.1-1.1-0.7-2-1.9-2c-0.9,0-1.7,0.5-1.7,1.7c0,1.1,1.1,1.8,2.6,3c1.6,1.3,2.1,2.1,2.1,3.4
				c0,1.9-1.8,2.9-3.7,2.9c-1,0-1.8-0.2-2.6-0.5c-0.1,0-0.1-0.1-0.1-0.2v-2.3h0.4c0.2,1.8,1.3,2.5,2.4,2.5c1.1,0,2-0.9,2-2
				c0-1-0.5-1.9-2.8-3.5c-0.8-0.6-1.8-1.2-1.8-2.9c0-1.4,1.5-2.6,3.2-2.6c0.6,0,1.5,0.1,2.1,0.3c0.1,0,0.1,0.1,0.1,0.2v2.1H28.9z"/>
			<path fill="#4D4D4F" d="M32.9,38.1c0,1.5-0.1,1.4,1.3,1.6v0.4h-4.1v-0.4c1.4-0.2,1.3-0.1,1.3-1.6v-7.2c0-1.5,0.1-1.4-1.3-1.6V29
				h4.1v0.4c-1.4,0.2-1.3,0.1-1.3,1.6v2.8h5.3v-2.8c0-1.5,0.1-1.4-1.3-1.6V29H41v0.4c-1.4,0.2-1.3,0.1-1.3,1.6v7.2
				c0,1.5-0.1,1.4,1.3,1.6v0.4h-4.1v-0.4c1.4-0.2,1.3-0.1,1.3-1.6v-3.8h-5.3V38.1z"/>
			<path fill="#4D4D4F" d="M44.4,38.1c0,1.5-0.1,1.4,1.3,1.6v0.4h-4.1v-0.4c1.4-0.2,1.3-0.1,1.3-1.6v-7.2c0-1.5,0.1-1.4-1.3-1.6V29
				h4.1v0.4c-1.4,0.2-1.3,0.1-1.3,1.6V38.1z"/>
			<path fill="#4D4D4F" d="M55.8,40.1c-2.4-3-4.9-6.1-7.4-9.2v7c0,0.3,0.1,0.6,0.1,0.9c0.1,0.6,0.6,0.8,1.6,0.9v0.4h-3.7v-0.4
				c0.7-0.1,1.2-0.3,1.3-0.9c0-0.3,0.1-0.5,0.1-0.9v-7.5c-0.4-0.6-0.9-1.1-1.8-1.1V29h2.8c2.3,2.9,4.6,5.8,6.8,8.7h0v-6.5
				c0-0.3-0.1-0.6-0.1-0.9c-0.1-0.6-0.6-0.8-1.6-0.9V29h3.7v0.4c-0.7,0.1-1.2,0.3-1.3,0.9c0,0.3-0.1,0.5-0.1,0.9v9H55.8z"/>
			<path fill="#4D4D4F" d="M57.5,34.5c0-2.4,2-5.7,6-5.7c1.5,0,2.2,0.3,2.9,0.5c0.4,0.1,0.6,0.4,0.6,0.6V32h-0.4
				c0-1.3-0.8-2.7-3.2-2.7c-3.2,0-4.2,2.3-4.2,5c0,2.5,1.2,5.4,4.3,5.4c1.9,0,2.1-0.7,2.1-2v-1c0-1.5,0.1-1.4-1.6-1.6v-0.4h4.4v0.4
				C67,35.4,67,35.3,67,36.8v2.8c-1,0.4-2.2,0.7-3.6,0.7C60.3,40.3,57.5,38.7,57.5,34.5z"/>
			<path fill="#4D4D4F" d="M73.2,38.1c0,1.5-0.1,1.4,1.3,1.6v0.4h-4.1v-0.4c1.4-0.2,1.3-0.1,1.3-1.6v-8.6h-1.4
				c-1.3,0-1.6,0.9-2.1,1.9h-0.4l0.4-2.4h8.4l0.4,2.4h-0.4c-0.5-1.1-0.8-1.9-2.1-1.9h-1.4V38.1z"/>
			<path fill="#4D4D4F" d="M76.7,34.7c0-3.4,2.5-6,5.7-6c3.3,0,5.2,3,5.2,5.4c0,3.4-2.4,6.1-5.7,6.1C79,40.3,76.7,37.8,76.7,34.7z
				 M85.9,34.7c0-3.8-2-5.3-3.8-5.3c-2.6,0-3.6,2.4-3.6,4.6c0,3.8,1.9,5.8,3.8,5.8C85.1,39.7,85.9,36.8,85.9,34.7z"/>
			<path fill="#4D4D4F" d="M96.9,40.1c-2.4-3-4.9-6.1-7.4-9.2v7c0,0.3,0.1,0.6,0.1,0.9c0.1,0.6,0.6,0.8,1.6,0.9v0.4h-3.7v-0.4
				c0.7-0.1,1.2-0.3,1.3-0.9c0-0.3,0.1-0.5,0.1-0.9v-7.5c-0.4-0.6-0.9-1.1-1.8-1.1V29h2.8c2.3,2.9,4.6,5.8,6.8,8.7h0v-6.5
				c0-0.3-0.1-0.6-0.1-0.9c-0.1-0.6-0.6-0.8-1.6-0.9V29h3.7v0.4c-0.7,0.1-1.2,0.3-1.3,0.9c0,0.3-0.1,0.5-0.1,0.9v9H96.9z"/>
			<path fill="#4D4D4F" d="M108.6,31.3c-0.1-1.1-0.7-2-1.9-2c-0.9,0-1.7,0.5-1.7,1.7c0,1.1,1.1,1.8,2.6,3c1.6,1.3,2.1,2.1,2.1,3.4
				c0,1.9-1.8,2.9-3.7,2.9c-1,0-1.8-0.2-2.6-0.5c-0.1,0-0.1-0.1-0.1-0.2v-2.3h0.4c0.2,1.8,1.3,2.5,2.4,2.5c1.1,0,1.9-0.9,1.9-2
				c0-1-0.5-1.9-2.8-3.5c-0.8-0.6-1.8-1.2-1.8-2.9c0-1.4,1.5-2.6,3.2-2.6c0.6,0,1.5,0.1,2.1,0.3c0.1,0,0.1,0.1,0.1,0.2v2.1H108.6z"
				/>
			<path fill="#4D4D4F" d="M114.7,38.1c0,1.5-0.1,1.4,1.3,1.6v0.4H112v-0.4c1.4-0.2,1.3-0.1,1.3-1.6v-8.6h-1.4
				c-1.3,0-1.6,0.9-2.1,1.9h-0.4l0.4-2.4h8.4l0.4,2.4h-0.4c-0.5-1.1-0.8-1.9-2.1-1.9h-1.4V38.1z"/>
			<path fill="#4D4D4F" d="M119.4,36.4l-0.7,2.1c-0.2,0.6,0.1,1.1,0.8,1.1v0.4h-2.8v-0.4c0.4,0,0.8-0.3,1.1-0.8
				c0.6-1.4,2.4-6.6,3.7-10.1h0.8c1,3.2,2.6,8.1,3.1,9.5c0.3,0.9,0.6,1.4,1.2,1.4v0.4h-3.5v-0.4c1,0,1-0.5,0.8-1.2l-0.7-2.1H119.4z
				 M123,35.8l-1.6-5.2h0l-1.8,5.2H123z"/>
			<path fill="#4D4D4F" d="M130,38.1c0,1.5-0.1,1.4,1.3,1.6v0.4h-4.1v-0.4c1.4-0.2,1.3-0.1,1.3-1.6v-8.6h-1.4
				c-1.3,0-1.6,0.9-2.1,1.9h-0.4l0.4-2.4h8.4l0.4,2.4h-0.4c-0.5-1.1-0.8-1.9-2.1-1.9H130V38.1z"/>
			<path fill="#4D4D4F" d="M134,39.7c1.4-0.2,1.3-0.1,1.3-1.6v-7.2c0-1.5,0.1-1.4-1.3-1.6V29h6.8v2.6h-0.4c-0.2-1.2-0.5-2.1-1.5-2.1
				h-2.1V34h1.3c1,0,1.4-0.4,1.4-1.4h0.4V36h-0.4c0-0.9-0.4-1.5-1.4-1.5h-1.3v3.6c0,1.4,0.6,1.5,1.9,1.5c2.2,0,2.1-0.7,2.8-2.4h0.4
				l-0.5,2.9H134V39.7z"/>
		</g>
		<g>
			<path fill="#4D4D4F" d="M28.2,48.6c0,1.3,0.3,2.3,1.6,2.3c1.2,0,1.8-0.8,1.8-2.3V46c0-0.2,0-0.3-0.1-0.5c0-0.3-0.3-0.5-0.8-0.5
				v-0.2h2.1V45c-0.4,0-0.7,0.2-0.7,0.5c0,0.1-0.1,0.3-0.1,0.5v2.6c0,2-1.2,2.7-2.3,2.7c-1.9,0-2.4-1-2.4-2.6v-2.7
				c0-0.9,0-0.8-0.7-0.9v-0.2H29V45c-0.8,0.1-0.8,0.1-0.8,0.9V48.6z"/>
			<path fill="#4D4D4F" d="M43.2,51.2c-1.4-1.7-2.8-3.5-4.2-5.3v4.1c0,0.2,0,0.3,0.1,0.5c0,0.3,0.3,0.5,0.9,0.5v0.2h-2.1v-0.2
				c0.4,0,0.7-0.2,0.7-0.5c0-0.1,0.1-0.3,0.1-0.5v-4.3c-0.2-0.3-0.5-0.6-1-0.6v-0.2h1.6c1.3,1.7,2.6,3.3,3.9,5h0V46
				c0-0.2,0-0.3-0.1-0.5c0-0.3-0.3-0.5-0.9-0.5v-0.2h2.1V45c-0.4,0-0.7,0.2-0.7,0.5c0,0.1-0.1,0.3-0.1,0.5v5.2H43.2z"/>
			<path fill="#4D4D4F" d="M50.8,50c0,0.9,0,0.8,0.8,0.9v0.2h-2.3v-0.2c0.8-0.1,0.8-0.1,0.8-0.9v-4.1c0-0.9,0-0.8-0.8-0.9v-0.2h2.3
				V45c-0.8,0.1-0.8,0.1-0.8,0.9V50z"/>
			<path fill="#4D4D4F" d="M58.7,45c-0.5,0-0.8,0.1-0.5,1c0.3,1.1,0.8,2.7,1.3,4.1c0.6-1.4,1.1-2.8,1.6-4.2c0.2-0.6,0-0.9-0.6-0.9
				v-0.2h1.9V45c-0.3,0-0.5,0.1-0.7,0.5c-0.7,1.9-1.5,3.7-2.2,5.6H59c-0.5-1.6-1.1-3.4-1.7-4.9c-0.3-1-0.6-1.3-1-1.3v-0.2h2.4V45z"
				/>
			<path fill="#4D4D4F" d="M66.8,50.9c0.8-0.1,0.8-0.1,0.8-0.9v-4.1c0-0.9,0-0.8-0.8-0.9v-0.2h3.9v1.5h-0.2
				c-0.1-0.7-0.3-1.2-0.9-1.2h-1.2v2.6h0.7c0.5,0,0.8-0.2,0.8-0.8h0.2v2h-0.2c0-0.5-0.2-0.9-0.8-0.9h-0.7V50c0,0.8,0.3,0.8,1.1,0.8
				c1.3,0,1.2-0.4,1.6-1.4h0.2l-0.3,1.6h-4.3V50.9z"/>
			<path fill="#4D4D4F" d="M76.2,44.8h2.5c0.9,0,1.8,0.5,1.8,1.6c0,0.9-0.5,1.6-1.2,1.9l0.9,1.4c0.4,0.7,0.9,1.3,1.2,1.5v0.1h-0.9
				c-0.5,0-0.8-1-1.8-2.8h-0.8V50c0,0.9,0,0.8,0.7,0.9v0.2h-2.3v-0.2c0.8-0.1,0.8-0.1,0.8-0.9v-4.1c0-0.9,0-0.8-0.8-0.9V44.8z
				 M77.8,48.1h0.7c0.8,0,1.1-0.6,1.1-1.6c0-1-0.5-1.3-1.2-1.3h-0.7V48.1z"/>
			<path fill="#4D4D4F" d="M89,46.1C89,45.5,88.6,45,87.9,45c-0.5,0-1,0.3-1,1c0,0.6,0.6,1,1.5,1.7c0.9,0.7,1.2,1.2,1.2,2
				c0,1.1-1.1,1.7-2.1,1.7c-0.6,0-1-0.1-1.5-0.3c0,0-0.1-0.1-0.1-0.1v-1.3h0.2c0.1,1,0.7,1.4,1.4,1.4c0.6,0,1.1-0.5,1.1-1.2
				c0-0.6-0.3-1.1-1.6-2c-0.5-0.3-1.1-0.7-1.1-1.7c0-0.8,0.9-1.5,1.9-1.5c0.4,0,0.9,0,1.2,0.2c0.1,0,0.1,0.1,0.1,0.1v1.2H89z"/>
			<path fill="#4D4D4F" d="M96.3,50c0,0.9,0,0.8,0.7,0.9v0.2h-2.3v-0.2c0.8-0.1,0.8-0.1,0.8-0.9v-4.1c0-0.9,0-0.8-0.8-0.9v-0.2h2.3
				V45c-0.8,0.1-0.7,0.1-0.7,0.9V50z"/>
			<path fill="#4D4D4F" d="M104.7,50c0,0.9,0,0.8,0.7,0.9v0.2h-2.3v-0.2c0.8-0.1,0.7-0.1,0.7-0.9v-5h-0.8c-0.8,0-0.9,0.5-1.2,1.1
				h-0.2l0.2-1.4h4.8l0.2,1.4h-0.2c-0.3-0.6-0.5-1.1-1.2-1.1h-0.8V50z"/>
			<path fill="#4D4D4F" d="M112.7,50.9c0.8-0.1,0.8-0.1,0.8-0.9v-1.4l-1.3-2.8c-0.3-0.6-0.5-0.8-0.9-0.8v-0.2h2.2V45
				c-0.7,0-0.6,0.3-0.4,0.8l1.1,2.3l1.2-2.3c0.3-0.6,0-0.8-0.5-0.8v-0.2h1.8V45c-0.2,0-0.5,0.1-0.7,0.6l-1.5,2.8
				c-0.1,0.2-0.1,0.4-0.1,0.7v1c0,0.9,0,0.8,0.7,0.9v0.2h-2.3V50.9z"/>
		</g>
	</g>
</g>
</svg>
