<svg xmlns="http://www.w3.org/2000/svg" xml:space="preserve" width="533.333" height="105.053"><path fill="#ae0c33" d="M64.618 104.95s5.357-2.288 8.295-11.148c2.586 5.399 1.911 10.95 1.911 10.95-2.372.532-10.206.198-10.206.198M93.4 54.279s3.268 17.809-8.308 18.416c-11.17.583-16.43-16.214-16.43-16.214s2.7 32.823 18.359 30.66c17.629-2.43 6.38-32.862 6.38-32.862M8.363 100.713c.008-.004.018-.004.018-.004 13.053-2.973 23.058-18.207 25.99-24.322l1.867-3.872 1.123 4.146c.055.224 1.272 4.798 1.272 10.833 0 .67-.017 1.355-.053 2.05 4.503.17 7.717-.743 9.718-2.82 2.87-2.964 3.73-8.582 2.664-17.17-.529-4.108-2.046-10.643-3.393-16.414-.69-2.95-1.339-5.74-1.733-7.713-2.516-12.615.609-20.45 3.67-24.797a20.85 20.85 0 0 1 1.568-1.942c-9.039 3.035-16.613 7.762-24.43 15.57l5.498 6.375 2.248-2.105c2.13 7.92.6 15.212.6 15.212-2.893-4.405-6.304-7.977-6.304-7.977l1.49-2.508-4.955-5.757-.573-.644c-6.092 8.367-8.063 15.211-8.063 15.211l4.32 3.958 2.516 2.279.847-2.427c4.65 8.698.403 16.827.403 16.827-.761-2.963-3.824-7.346-3.824-7.346l1.21-3.988-6.434-5.82C8.935 76.44.001 83.21.001 83.21s9.664-1.742 15.05-3.55c0 0-.148 11.012-6.688 21.053"/><path fill="#ae0c33" d="M61.21 32.28c3.115-2.184 8.415-3.863 13.389-3.482 1.258.093 2.323-.237.967-.954-3.72-1.96-12.39-1.294-15.458.797-4.91 3.349-4.078 9.316-3.966 9.46.98-1.71 2.641-4.124 5.067-5.82m44.749-6.943-15.444.653c.008 1.817-.233 3.661-.824 5.403 1.441 6.304.439 9.723.439 9.723-2.584-6.012-4.549-7.681-4.549-7.681-14.186-6.299-22.155 7.946-21.3 17.136.695 7.552 3.438 17.575 5.574 33.302 1.8 13.233-4.902 18.953-12.61 20.266a7.09 7.09 0 0 0-.507.088c-.044 0-.08 0-.12.01a26.51 26.51 0 0 1-3.98.197c-.045-.014-.103-.014-.148-.014-.157 0-.305-.022-.46-.022-.6-.036-1.192-.1-1.778-.17-5.999-.829-19.429-3.268-33.302-3.604 8.161-4.763 14.545-13.014 18.108-18.856.207 1.62.372 3.596.372 5.77 0 1.084-.036 2.225-.148 3.39l-.134 1.594 1.598.133c6.384.555 10.91-.662 13.869-3.71 3.617-3.77 4.731-10.05 3.505-19.792-.529-4.27-2.083-10.896-3.438-16.738-.676-2.923-1.317-5.698-1.706-7.614-2.296-11.51.448-18.498 3.156-22.33 2.108-2.999 5.032-5.201 8.237-6.258.053-.009.107-.023.165-.031L65.807.004h1.656l-3.54 15.548c.819-.143 1.652-.274 2.493-.403L70.968.815h1.64l-2.983 13.881c4.715-.604 9.827-1.074 15.494-1.49.917.367 1.912 1.428 2.784 2.905l14.863-4.57.55 1.602-14.208 5.51c.112.292.224.596.313.905l15.534-1.93.26 1.666-15.073 3.008c.054.282.099.564.148.847l15.676.505-.008 1.684"/><path fill="#565353" d="M162.792 82.461c0 2.627-1.461 4.335-4.21 4.335-2.774 0-4.235-1.708-4.235-4.335v-9.906h-2.924v10.007c0 4.06 2.353 6.81 7.158 6.81 4.782 0 7.134-2.725 7.134-6.836v-9.981h-2.923v9.906M196.877 84.023l-8.446-11.468h-2.972v16.52h2.897v-11.79l8.62 11.79h2.799v-16.52h-2.898v11.468M222.964 89.076h2.899V72.555h-2.899v16.52M256.21 85.93l-5.005-13.375h-3.293l6.49 16.52h3.615l6.49-16.52h-3.294L256.21 85.93M284.599 89.076h11.318v-2.552h-8.421V81.94h7.123v-2.55h-7.123v-4.285h8.421v-2.551H284.6v16.52M355.295 76.938c0-1.238 1.089-2.055 2.798-2.055 1.734 0 3.492.594 4.78 1.882l1.66-2.155c-1.536-1.486-3.617-2.303-6.192-2.303-3.616 0-6.02 2.105-6.02 4.83 0 6.092 9.636 3.938 9.636 7.406 0 1.089-.942 2.253-3.318 2.253-2.304 0-4.088-1.064-5.228-2.278l-1.61 2.229c1.462 1.56 3.667 2.626 6.712 2.626 4.459 0 6.391-2.354 6.391-5.104 0-6.167-9.61-4.26-9.61-7.331M388.701 89.076h2.898V72.555H388.7v16.52M415.493 75.106h5.003v13.97h2.899v-13.97h5.004v-2.551h-12.906v2.551M454.892 79.638l-4.556-7.083h-3.319l6.414 9.659v6.862h2.898v-6.862l6.391-9.66h-3.319l-4.509 7.084M321.645 80.357v-5.251h3.963c1.635 0 2.823 1.04 2.823 2.624 0 1.587-1.188 2.627-2.823 2.627zm10.47 8.719-4.116-6.615c1.79-.493 3.405-2.036 3.405-4.73 0-3.046-2.13-5.176-5.4-5.176h-7.256v16.52h2.897v-6.167h3.46l3.666 6.168h3.344M212.339 41.323c0-1.62 1.377-2.716 3.848-2.716 2.756 0 5.673.932 7.861 2.958l3.201-4.214c-2.674-2.471-6.24-3.768-10.534-3.768-6.363 0-10.252 3.729-10.252 8.226 0 10.17 15.558 6.889 15.558 11.67 0 1.54-1.54 2.998-4.7 2.998a11.848 11.848 0 0 1-8.589-3.647l-3.12 4.376c2.51 2.554 6.239 4.296 11.425 4.296 7.295 0 10.82-3.729 10.82-8.672 0-10.09-15.518-7.213-15.518-11.507M250.075 44.604h-12.762V33.99h-5.754v27.026h5.754V49.67h12.762v11.346h5.796V33.99h-5.796v10.615M261.08 61.015h5.753V33.99h-5.753v27.026M290.875 50.966 278.353 33.99h-5.916v27.026h5.755V43.39l12.884 17.626h5.552V33.99h-5.753v16.977M328.44 39.053h7.903v21.962h5.794V39.053h7.86v-5.064H328.44v5.064M363.867 56.395c-4.984 0-8.186-3.848-8.186-8.872 0-5.066 3.202-8.875 8.186-8.875s8.225 3.81 8.225 8.875c0 5.024-3.241 8.872-8.225 8.872zm0-22.852c-8.144 0-14.102 5.834-14.102 13.98 0 8.143 5.958 13.979 14.102 13.979 8.185 0 14.141-5.836 14.141-13.98 0-8.145-5.956-13.979-14.141-13.979M405.336 61.015V33.99h-5.755v16.977l-12.52-16.977h-5.916v27.026h5.755V43.39l12.884 17.626h5.552M432.259 41.323c0-1.62 1.377-2.716 3.849-2.716 2.756 0 5.673.932 7.861 2.958l3.202-4.214c-2.676-2.471-6.242-3.768-10.536-3.768-6.362 0-10.252 3.729-10.252 8.226 0 10.17 15.56 6.889 15.56 11.67 0 1.54-1.54 2.998-4.702 2.998a11.853 11.853 0 0 1-8.589-3.647l-3.12 4.376c2.512 2.554 6.24 4.296 11.427 4.296 7.293 0 10.818-3.729 10.818-8.672 0-10.09-15.518-7.213-15.518-11.507M470.53 33.989h-21.557v5.064h7.902v21.962h5.794V39.053h7.862v-5.064M503.837 61.015V39.053h7.86v-5.064H490.14v5.064h7.901v21.962h5.796M533.333 39.053v-5.064h-19.125v27.026h19.125V55.95h-13.37v-6.119h11.961v-5.065h-11.961v-5.713h13.37M189.07 49.955l3.054-9.144 3.052 9.144zm6.502-15.927h-6.896l-9.63 27.03h6.511l1.912-5.59h9.316l1.867 5.59h6.512l-9.592-27.03M477.275 49.955l3.052-9.143 3.053 9.143zm6.501-15.926h-6.896l-9.63 27.026h6.511l1.912-5.587h9.315l1.868 5.587h6.512l-9.592-27.026M328.445 44.938H314.92v5.039h7.55c-.883 3.768-3.811 6.418-7.945 6.418-4.982 0-8.184-3.848-8.184-8.872 0-5.066 3.202-8.875 8.184-8.875 2.95 0 5.282 1.34 6.7 3.479l5.034-2.732c-2.476-3.621-6.676-5.852-11.734-5.852-8.142 0-14.1 5.834-14.1 13.98 0 8.143 5.958 13.979 14.1 13.979 7.335 0 12.866-4.692 13.939-11.525.124-.793.204-1.608.204-2.454 0-.893-.084-1.752-.223-2.585M176.755 34.028l-6.294 17.65-5.672-17.65h-4.886l-5.696 17.673-6.236-17.493-.056-.18h-6.112l9.62 27.027h5.905l5.007-15.613 5.02 15.613h5.877l9.647-27.027h-6.124M125.686 102.072h-2.29v-81.05h2.29v81.05"/></svg>